# xmcd
#
# Track frame offsets:
#	150
#	10932
#	27378
#	41294
#	51687
#	67632
#	81712
#	92462
#	105219
#	126221
#
# Disc length: 1827 seconds
#
# Revision: 2
# Processed by: cddbd v1.5.2PL0 Copyright (c) Steve Scherf et al.
# Submitted via: EasyCDDAExtractor 16.1.0.1
#
DISCID=7707210a
DTITLE=Booth Brothers - Pure Southern Gospel
DYEAR=2004
DGENRE=Gospel
TTITLE0=Light Up The Sky
TTITLE1=His Grace Is Sufficient
TTITLE2=Homeland
TTITLE3=Going In Style
TTITLE4=Night Before Easter
TTITLE5=We Shall See Heaven Someday
TTITLE6=I Stand Upon The Rock Of Ages
TTITLE7=I'll Have A New Song
TTITLE8=Look For Me At Jesus Feet
TTITLE9=I've Been Changed
EXTD=
EXTT0=
EXTT1=
EXTT2=
EXTT3=
EXTT4=
EXTT5=
EXTT6=
EXTT7=
EXTT8=
EXTT9=
PLAYORDER=
